
    <svg
        width="1200"
        height="420"
        viewBox="0 0 1200 420"
        fill="none"
        xmlns="http://www.w3.org/2000/svg">
<defs>
          <linearGradient id="fadeGradient" x1="0%" y1="0%" x2="0%" y2="100%">
            <stop offset="0%" stop-color="#00f2fe" stop-opacity="0.6" />
            <stop offset="100%" stop-color="#00f2fe" stop-opacity="0.0" />
          </linearGradient>
          <style>
            .ct-line { stroke: #00f2fe !important; stroke-width: 3px !important; filter: drop-shadow(0 0 5px #00f2fe) !important; }
            .ct-point { stroke: #39ff14 !important; stroke-width: 8px !important; stroke-linecap: round !important; filter: drop-shadow(0 0 5px #39ff14) !important; }
            .ct-area { fill: url(#fadeGradient) !important; fill-opacity: 1 !important; }
            .ct-grid { stroke: #1e293b !important; stroke-dasharray: 4 !important; }
          </style>
        </defs>
            

            <style>
                body {
                    font: 600 18px 'Segoe UI', Ubuntu, Sans-Serif;
                }
                .header {
                    font: 600 20px 'Segoe UI', Ubuntu, Sans-Serif;
                    text-align: center;
                    color: #94a3b8;
                    margin-top: 20px;
                }
                svg {
                    font: 600 18px 'Segoe UI', Ubuntu, Sans-Serif;
                    user-select: none;
                }
                
    .ct-label {
      fill: #94a3b8;
      color: #94a3b8;
      font-size: .75rem;
      line-height: 1;
    }

    .ct-grid-background,
    .ct-line {
      fill: none;
    }

    .ct-chart-bar .ct-label,
    .ct-chart-line .ct-label {
      display: block;
      display: -webkit-box;
      display: -moz-box;
      display: -ms-flexbox;
      display: -webkit-flex;
      display: flex;
    }

    .ct-label.ct-horizontal.ct-start {
      -webkit-box-align: flex-end;
      -webkit-align-items: flex-end;
      -ms-flex-align: flex-end;
      align-items: flex-end;
      -webkit-box-pack: flex-start;
      -webkit-justify-content: flex-start;
      -ms-flex-pack: flex-start;
      justify-content: flex-start;
      text-align: left;
      text-anchor: start;
    }

    .ct-label.ct-horizontal.ct-end {
      -webkit-box-align: flex-start;
      -webkit-align-items: flex-start;
      -ms-flex-align: flex-start;
      align-items: flex-start;
      -webkit-box-pack: flex-start;
      -webkit-justify-content: flex-start;
      -ms-flex-pack: flex-start;
      justify-content: flex-start;
      text-align: left;
      text-anchor: start;
    }

    .ct-label.ct-vertical.ct-start {
      -webkit-box-align: flex-end;
      -webkit-align-items: flex-end;
      -ms-flex-align: flex-end;
      align-items: flex-end;
      -webkit-box-pack: flex-end;
      -webkit-justify-content: flex-end;
      -ms-flex-pack: flex-end;
      justify-content: flex-end;
      text-align: right;
      text-anchor: end;
    }

    .ct-label.ct-vertical.ct-end {
      -webkit-box-align: flex-end;
      -webkit-align-items: flex-end;
      -ms-flex-align: flex-end;
      align-items: flex-end;
      -webkit-box-pack: flex-start;
      -webkit-justify-content: flex-start;
      -ms-flex-pack: flex-start;
      justify-content: flex-start;
      text-align: left;
      text-anchor: start;
    }

    .ct-grid {
      stroke: #94a3b8;
      stroke-width: 1px;
      stroke-opacity: 0.3;
      stroke-dasharray: 2px;
    }

    .ct-point {
      stroke-width: 10px;
      stroke-linecap: round;
      stroke: #39ff14;
      animation: blink 1s ease-in-out forwards;
    }

    .ct-line {
      stroke-width: 4px;
      stroke-dasharray: 5000;
      stroke-dashoffset: 5000;
      stroke: #00f2fe;
      animation: dash 5s ease-in-out forwards;
    }

    .ct-area {
      stroke: none;
      fill-opacity: 0.1;
    }

    .ct-series-a .ct-area,
    .ct-series-a .ct-slice-pie {
      fill: #00f2fe;
    }

    .ct-label .ct-horizontal {
      transform: rotate(-90deg)
    }
    
                
        @keyframes blink {
            from {
                opacity: 0;
                transform:translateX(-20px); 
            }
            to {
                opacity:1;
                transform: translateX(0);
            }
        }
    
                
        @keyframes dash {
            to {
                stroke-dashoffset: 0;
            }
        }
    
    
            </style>

            <foreignObject x="0" y="0" width="1200" height="50">
                <h1 xmlns="http://www.w3.org/1999/xhtml" class="header">
                    Contribution Activity
                </h1>
            </foreignObject>
            <svg xmlns:ct="http://gionkunz.github.com/chartist-js/ct" width="1200" height="420" class="ct-chart-line"><g class="ct-grids"><line x1="90" x2="90" y1="80" y2="350" class="ct-grid ct-horizontal"></line><line x1="125.33333333333334" x2="125.33333333333334" y1="80" y2="350" class="ct-grid ct-horizontal"></line><line x1="160.66666666666669" x2="160.66666666666669" y1="80" y2="350" class="ct-grid ct-horizontal"></line><line x1="196" x2="196" y1="80" y2="350" class="ct-grid ct-horizontal"></line><line x1="231.33333333333334" x2="231.33333333333334" y1="80" y2="350" class="ct-grid ct-horizontal"></line><line x1="266.6666666666667" x2="266.6666666666667" y1="80" y2="350" class="ct-grid ct-horizontal"></line><line x1="302" x2="302" y1="80" y2="350" class="ct-grid ct-horizontal"></line><line x1="337.33333333333337" x2="337.33333333333337" y1="80" y2="350" class="ct-grid ct-horizontal"></line><line x1="372.6666666666667" x2="372.6666666666667" y1="80" y2="350" class="ct-grid ct-horizontal"></line><line x1="408" x2="408" y1="80" y2="350" class="ct-grid ct-horizontal"></line><line x1="443.33333333333337" x2="443.33333333333337" y1="80" y2="350" class="ct-grid ct-horizontal"></line><line x1="478.6666666666667" x2="478.6666666666667" y1="80" y2="350" class="ct-grid ct-horizontal"></line><line x1="514" x2="514" y1="80" y2="350" class="ct-grid ct-horizontal"></line><line x1="549.3333333333334" x2="549.3333333333334" y1="80" y2="350" class="ct-grid ct-horizontal"></line><line x1="584.6666666666667" x2="584.6666666666667" y1="80" y2="350" class="ct-grid ct-horizontal"></line><line x1="620" x2="620" y1="80" y2="350" class="ct-grid ct-horizontal"></line><line x1="655.3333333333334" x2="655.3333333333334" y1="80" y2="350" class="ct-grid ct-horizontal"></line><line x1="690.6666666666667" x2="690.6666666666667" y1="80" y2="350" class="ct-grid ct-horizontal"></line><line x1="726" x2="726" y1="80" y2="350" class="ct-grid ct-horizontal"></line><line x1="761.3333333333334" x2="761.3333333333334" y1="80" y2="350" class="ct-grid ct-horizontal"></line><line x1="796.6666666666667" x2="796.6666666666667" y1="80" y2="350" class="ct-grid ct-horizontal"></line><line x1="832" x2="832" y1="80" y2="350" class="ct-grid ct-horizontal"></line><line x1="867.3333333333334" x2="867.3333333333334" y1="80" y2="350" class="ct-grid ct-horizontal"></line><line x1="902.6666666666667" x2="902.6666666666667" y1="80" y2="350" class="ct-grid ct-horizontal"></line><line x1="938" x2="938" y1="80" y2="350" class="ct-grid ct-horizontal"></line><line x1="973.3333333333334" x2="973.3333333333334" y1="80" y2="350" class="ct-grid ct-horizontal"></line><line x1="1008.6666666666667" x2="1008.6666666666667" y1="80" y2="350" class="ct-grid ct-horizontal"></line><line x1="1044" x2="1044" y1="80" y2="350" class="ct-grid ct-horizontal"></line><line x1="1079.3333333333335" x2="1079.3333333333335" y1="80" y2="350" class="ct-grid ct-horizontal"></line><line x1="1114.6666666666667" x2="1114.6666666666667" y1="80" y2="350" class="ct-grid ct-horizontal"></line><line x1="1150" x2="1150" y1="80" y2="350" class="ct-grid ct-horizontal"></line><line y1="350" y2="350" x1="90" x2="1150" class="ct-grid ct-vertical"></line><line y1="311.42857142857144" y2="311.42857142857144" x1="90" x2="1150" class="ct-grid ct-vertical"></line><line y1="272.8571428571429" y2="272.8571428571429" x1="90" x2="1150" class="ct-grid ct-vertical"></line><line y1="234.28571428571428" y2="234.28571428571428" x1="90" x2="1150" class="ct-grid ct-vertical"></line><line y1="195.71428571428572" y2="195.71428571428572" x1="90" x2="1150" class="ct-grid ct-vertical"></line><line y1="157.14285714285714" y2="157.14285714285714" x1="90" x2="1150" class="ct-grid ct-vertical"></line><line y1="118.57142857142858" y2="118.57142857142858" x1="90" x2="1150" class="ct-grid ct-vertical"></line><line y1="80" y2="80" x1="90" x2="1150" class="ct-grid ct-vertical"></line></g><g><g class="ct-series ct-series-a"><path d="M90,350L90,326.857C101.778,325.571,113.556,323,125.333,323C137.111,323,148.889,323,160.667,323C172.444,323,184.222,321.629,196,319.143C207.778,316.657,219.556,207.286,231.333,207.286C243.111,207.286,254.889,319.143,266.667,319.143C278.444,319.143,290.222,315.286,302,315.286C313.778,315.286,325.556,323,337.333,323C349.111,323,360.889,311.429,372.667,311.429C384.444,311.429,396.222,323,408,323C419.778,323,431.556,321.571,443.333,319.143C455.111,316.714,466.889,253.571,478.667,253.571C490.444,253.571,502.222,326.857,514,326.857C525.778,326.857,537.556,275.906,549.333,253.571C561.111,231.237,572.889,191.857,584.667,191.857C596.444,191.857,608.222,316.647,620,319.143C631.778,321.639,643.556,323,655.333,323C667.111,323,678.889,215,690.667,215C702.444,215,714.222,320.517,726,323C737.778,325.483,749.556,326.857,761.333,326.857C773.111,326.857,784.889,87.714,796.667,87.714C808.444,87.714,820.222,319.143,832,319.143C843.778,319.143,855.556,319.143,867.333,319.143C879.111,319.143,890.889,249.714,902.667,249.714C914.444,249.714,926.222,315.286,938,315.286C949.778,315.286,961.556,269,973.333,269C985.111,269,996.889,307.077,1008.667,311.429C1020.444,315.78,1032.222,317.429,1044,319.143C1055.778,320.857,1067.556,323,1079.333,323C1091.111,323,1102.889,319.143,1114.667,319.143C1126.444,319.143,1138.222,319.143,1150,319.143L1150,350Z" class="ct-area"></path><path d="M90,326.857C101.778,325.571,113.556,323,125.333,323C137.111,323,148.889,323,160.667,323C172.444,323,184.222,321.629,196,319.143C207.778,316.657,219.556,207.286,231.333,207.286C243.111,207.286,254.889,319.143,266.667,319.143C278.444,319.143,290.222,315.286,302,315.286C313.778,315.286,325.556,323,337.333,323C349.111,323,360.889,311.429,372.667,311.429C384.444,311.429,396.222,323,408,323C419.778,323,431.556,321.571,443.333,319.143C455.111,316.714,466.889,253.571,478.667,253.571C490.444,253.571,502.222,326.857,514,326.857C525.778,326.857,537.556,275.906,549.333,253.571C561.111,231.237,572.889,191.857,584.667,191.857C596.444,191.857,608.222,316.647,620,319.143C631.778,321.639,643.556,323,655.333,323C667.111,323,678.889,215,690.667,215C702.444,215,714.222,320.517,726,323C737.778,325.483,749.556,326.857,761.333,326.857C773.111,326.857,784.889,87.714,796.667,87.714C808.444,87.714,820.222,319.143,832,319.143C843.778,319.143,855.556,319.143,867.333,319.143C879.111,319.143,890.889,249.714,902.667,249.714C914.444,249.714,926.222,315.286,938,315.286C949.778,315.286,961.556,269,973.333,269C985.111,269,996.889,307.077,1008.667,311.429C1020.444,315.78,1032.222,317.429,1044,319.143C1055.778,320.857,1067.556,323,1079.333,323C1091.111,323,1102.889,319.143,1114.667,319.143C1126.444,319.143,1138.222,319.143,1150,319.143" class="ct-line"><animate attributeName="stroke-dashoffset" from="5000" to="0" dur="5s" repeatCount="indefinite" /><animate attributeName="opacity" values="0.7;1;0.7" dur="3s" repeatCount="indefinite" /></path><line x1="90" y1="326.85714285714283" x2="90.01" y2="326.85714285714283" class="ct-point" ct:value="6"><animateTransform attributeName="transform" type="translate" values="0,0; 0,-6; 0,0" dur="2s" repeatCount="indefinite" /></line><line x1="125.33333333333334" y1="323" x2="125.34333333333335" y2="323" class="ct-point" ct:value="7"><animateTransform attributeName="transform" type="translate" values="0,0; 0,-6; 0,0" dur="2s" repeatCount="indefinite" /></line><line x1="160.66666666666669" y1="323" x2="160.67666666666668" y2="323" class="ct-point" ct:value="7"><animateTransform attributeName="transform" type="translate" values="0,0; 0,-6; 0,0" dur="2s" repeatCount="indefinite" /></line><line x1="196" y1="319.14285714285717" x2="196.01" y2="319.14285714285717" class="ct-point" ct:value="8"><animateTransform attributeName="transform" type="translate" values="0,0; 0,-6; 0,0" dur="2s" repeatCount="indefinite" /></line><line x1="231.33333333333334" y1="207.28571428571428" x2="231.34333333333333" y2="207.28571428571428" class="ct-point" ct:value="37"><animateTransform attributeName="transform" type="translate" values="0,0; 0,-6; 0,0" dur="2s" repeatCount="indefinite" /></line><line x1="266.6666666666667" y1="319.14285714285717" x2="266.6766666666667" y2="319.14285714285717" class="ct-point" ct:value="8"><animateTransform attributeName="transform" type="translate" values="0,0; 0,-6; 0,0" dur="2s" repeatCount="indefinite" /></line><line x1="302" y1="315.2857142857143" x2="302.01" y2="315.2857142857143" class="ct-point" ct:value="9"><animateTransform attributeName="transform" type="translate" values="0,0; 0,-6; 0,0" dur="2s" repeatCount="indefinite" /></line><line x1="337.33333333333337" y1="323" x2="337.34333333333336" y2="323" class="ct-point" ct:value="7"><animateTransform attributeName="transform" type="translate" values="0,0; 0,-6; 0,0" dur="2s" repeatCount="indefinite" /></line><line x1="372.6666666666667" y1="311.42857142857144" x2="372.6766666666667" y2="311.42857142857144" class="ct-point" ct:value="10"><animateTransform attributeName="transform" type="translate" values="0,0; 0,-6; 0,0" dur="2s" repeatCount="indefinite" /></line><line x1="408" y1="323" x2="408.01" y2="323" class="ct-point" ct:value="7"><animateTransform attributeName="transform" type="translate" values="0,0; 0,-6; 0,0" dur="2s" repeatCount="indefinite" /></line><line x1="443.33333333333337" y1="319.14285714285717" x2="443.34333333333336" y2="319.14285714285717" class="ct-point" ct:value="8"><animateTransform attributeName="transform" type="translate" values="0,0; 0,-6; 0,0" dur="2s" repeatCount="indefinite" /></line><line x1="478.6666666666667" y1="253.57142857142856" x2="478.6766666666667" y2="253.57142857142856" class="ct-point" ct:value="25"><animateTransform attributeName="transform" type="translate" values="0,0; 0,-6; 0,0" dur="2s" repeatCount="indefinite" /></line><line x1="514" y1="326.85714285714283" x2="514.01" y2="326.85714285714283" class="ct-point" ct:value="6"><animateTransform attributeName="transform" type="translate" values="0,0; 0,-6; 0,0" dur="2s" repeatCount="indefinite" /></line><line x1="549.3333333333334" y1="253.57142857142856" x2="549.3433333333334" y2="253.57142857142856" class="ct-point" ct:value="25"><animateTransform attributeName="transform" type="translate" values="0,0; 0,-6; 0,0" dur="2s" repeatCount="indefinite" /></line><line x1="584.6666666666667" y1="191.85714285714286" x2="584.6766666666667" y2="191.85714285714286" class="ct-point" ct:value="41"><animateTransform attributeName="transform" type="translate" values="0,0; 0,-6; 0,0" dur="2s" repeatCount="indefinite" /></line><line x1="620" y1="319.14285714285717" x2="620.01" y2="319.14285714285717" class="ct-point" ct:value="8"><animateTransform attributeName="transform" type="translate" values="0,0; 0,-6; 0,0" dur="2s" repeatCount="indefinite" /></line><line x1="655.3333333333334" y1="323" x2="655.3433333333334" y2="323" class="ct-point" ct:value="7"><animateTransform attributeName="transform" type="translate" values="0,0; 0,-6; 0,0" dur="2s" repeatCount="indefinite" /></line><line x1="690.6666666666667" y1="215" x2="690.6766666666667" y2="215" class="ct-point" ct:value="35"><animateTransform attributeName="transform" type="translate" values="0,0; 0,-6; 0,0" dur="2s" repeatCount="indefinite" /></line><line x1="726" y1="323" x2="726.01" y2="323" class="ct-point" ct:value="7"><animateTransform attributeName="transform" type="translate" values="0,0; 0,-6; 0,0" dur="2s" repeatCount="indefinite" /></line><line x1="761.3333333333334" y1="326.85714285714283" x2="761.3433333333334" y2="326.85714285714283" class="ct-point" ct:value="6"><animateTransform attributeName="transform" type="translate" values="0,0; 0,-6; 0,0" dur="2s" repeatCount="indefinite" /></line><line x1="796.6666666666667" y1="87.71428571428572" x2="796.6766666666667" y2="87.71428571428572" class="ct-point" ct:value="68"><animateTransform attributeName="transform" type="translate" values="0,0; 0,-6; 0,0" dur="2s" repeatCount="indefinite" /></line><line x1="832" y1="319.14285714285717" x2="832.01" y2="319.14285714285717" class="ct-point" ct:value="8"><animateTransform attributeName="transform" type="translate" values="0,0; 0,-6; 0,0" dur="2s" repeatCount="indefinite" /></line><line x1="867.3333333333334" y1="319.14285714285717" x2="867.3433333333334" y2="319.14285714285717" class="ct-point" ct:value="8"><animateTransform attributeName="transform" type="translate" values="0,0; 0,-6; 0,0" dur="2s" repeatCount="indefinite" /></line><line x1="902.6666666666667" y1="249.71428571428572" x2="902.6766666666667" y2="249.71428571428572" class="ct-point" ct:value="26"><animateTransform attributeName="transform" type="translate" values="0,0; 0,-6; 0,0" dur="2s" repeatCount="indefinite" /></line><line x1="938" y1="315.2857142857143" x2="938.01" y2="315.2857142857143" class="ct-point" ct:value="9"><animateTransform attributeName="transform" type="translate" values="0,0; 0,-6; 0,0" dur="2s" repeatCount="indefinite" /></line><line x1="973.3333333333334" y1="269" x2="973.3433333333334" y2="269" class="ct-point" ct:value="21"><animateTransform attributeName="transform" type="translate" values="0,0; 0,-6; 0,0" dur="2s" repeatCount="indefinite" /></line><line x1="1008.6666666666667" y1="311.42857142857144" x2="1008.6766666666667" y2="311.42857142857144" class="ct-point" ct:value="10"><animateTransform attributeName="transform" type="translate" values="0,0; 0,-6; 0,0" dur="2s" repeatCount="indefinite" /></line><line x1="1044" y1="319.14285714285717" x2="1044.01" y2="319.14285714285717" class="ct-point" ct:value="8"><animateTransform attributeName="transform" type="translate" values="0,0; 0,-6; 0,0" dur="2s" repeatCount="indefinite" /></line><line x1="1079.3333333333335" y1="323" x2="1079.3433333333335" y2="323" class="ct-point" ct:value="7"><animateTransform attributeName="transform" type="translate" values="0,0; 0,-6; 0,0" dur="2s" repeatCount="indefinite" /></line><line x1="1114.6666666666667" y1="319.14285714285717" x2="1114.6766666666667" y2="319.14285714285717" class="ct-point" ct:value="8"><animateTransform attributeName="transform" type="translate" values="0,0; 0,-6; 0,0" dur="2s" repeatCount="indefinite" /></line><line x1="1150" y1="319.14285714285717" x2="1150.01" y2="319.14285714285717" class="ct-point" ct:value="8"><animateTransform attributeName="transform" type="translate" values="0,0; 0,-6; 0,0" dur="2s" repeatCount="indefinite" /></line></g></g><g class="ct-labels"><text x="85.5" y="370" width="35.333333333333336" height="40" class="ct-label ct-horizontal ct-end">3</text><text x="120.83333333333334" y="370" width="35.333333333333336" height="40" class="ct-label ct-horizontal ct-end">4</text><text x="156.16666666666669" y="370" width="35.33333333333333" height="40" class="ct-label ct-horizontal ct-end">5</text><text x="191.5" y="370" width="35.33333333333334" height="40" class="ct-label ct-horizontal ct-end">6</text><text x="226.83333333333334" y="370" width="35.33333333333334" height="40" class="ct-label ct-horizontal ct-end">7</text><text x="262.1666666666667" y="370" width="35.333333333333314" height="40" class="ct-label ct-horizontal ct-end">8</text><text x="297.5" y="370" width="35.33333333333334" height="40" class="ct-label ct-horizontal ct-end">9</text><text x="332.83333333333337" y="370" width="35.33333333333334" height="40" class="ct-label ct-horizontal ct-end">10</text><text x="368.1666666666667" y="370" width="35.333333333333314" height="40" class="ct-label ct-horizontal ct-end">11</text><text x="403.5" y="370" width="35.33333333333337" height="40" class="ct-label ct-horizontal ct-end">12</text><text x="438.83333333333337" y="370" width="35.333333333333314" height="40" class="ct-label ct-horizontal ct-end">13</text><text x="474.1666666666667" y="370" width="35.333333333333314" height="40" class="ct-label ct-horizontal ct-end">14</text><text x="509.5" y="370" width="35.33333333333337" height="40" class="ct-label ct-horizontal ct-end">15</text><text x="544.8333333333334" y="370" width="35.333333333333314" height="40" class="ct-label ct-horizontal ct-end">16</text><text x="580.1666666666667" y="370" width="35.333333333333314" height="40" class="ct-label ct-horizontal ct-end">17</text><text x="615.5" y="370" width="35.33333333333337" height="40" class="ct-label ct-horizontal ct-end">18</text><text x="650.8333333333334" y="370" width="35.33333333333337" height="40" class="ct-label ct-horizontal ct-end">19</text><text x="686.1666666666667" y="370" width="35.33333333333326" height="40" class="ct-label ct-horizontal ct-end">20</text><text x="721.5" y="370" width="35.33333333333337" height="40" class="ct-label ct-horizontal ct-end">21</text><text x="756.8333333333334" y="370" width="35.33333333333337" height="40" class="ct-label ct-horizontal ct-end">22</text><text x="792.1666666666667" y="370" width="35.33333333333326" height="40" class="ct-label ct-horizontal ct-end">23</text><text x="827.5" y="370" width="35.33333333333337" height="40" class="ct-label ct-horizontal ct-end">24</text><text x="862.8333333333334" y="370" width="35.33333333333337" height="40" class="ct-label ct-horizontal ct-end">25</text><text x="898.1666666666667" y="370" width="35.33333333333326" height="40" class="ct-label ct-horizontal ct-end">26</text><text x="933.5" y="370" width="35.33333333333337" height="40" class="ct-label ct-horizontal ct-end">27</text><text x="968.8333333333334" y="370" width="35.33333333333337" height="40" class="ct-label ct-horizontal ct-end">28</text><text x="1004.1666666666667" y="370" width="35.33333333333337" height="40" class="ct-label ct-horizontal ct-end">29</text><text x="1039.5" y="370" width="35.33333333333326" height="40" class="ct-label ct-horizontal ct-end">30</text><text x="1074.8333333333335" y="370" width="35.33333333333337" height="40" class="ct-label ct-horizontal ct-end">1</text><text x="1110.1666666666667" y="370" width="35.33333333333326" height="40" class="ct-label ct-horizontal ct-end">2</text><text x="1145.5" y="370" width="30" height="40" class="ct-label ct-horizontal ct-end">3</text><text y="354.5" x="80" height="38.57142857142857" width="60" class="ct-label ct-vertical ct-start">0</text><text y="315.92857142857144" x="80" height="38.57142857142857" width="60" class="ct-label ct-vertical ct-start">10</text><text y="277.3571428571429" x="80" height="38.57142857142857" width="60" class="ct-label ct-vertical ct-start">20</text><text y="238.78571428571428" x="80" height="38.57142857142857" width="60" class="ct-label ct-vertical ct-start">30</text><text y="200.21428571428572" x="80" height="38.571428571428584" width="60" class="ct-label ct-vertical ct-start">40</text><text y="161.64285714285714" x="80" height="38.571428571428555" width="60" class="ct-label ct-vertical ct-start">50</text><text y="123.07142857142858" x="80" height="38.571428571428584" width="60" class="ct-label ct-vertical ct-start">60</text><text y="84.5" x="80" height="30" width="60" class="ct-label ct-vertical ct-start">70</text></g><text class="ct-axis-title ct-label" x="620" y="400" dominant-baseline="text-after-edge" text-anchor="middle">Days</text><text class="ct-axis-title ct-label" x="20" y="215" transform="rotate(-90, 20, 215)" dominant-baseline="hanging" text-anchor="middle">Contributions</text></svg>
    </svg>
