<svg width="800" height="200" xmlns="http://www.w3.org/2000/svg">
  <defs>
    <style>
      .bg-rect {
        fill: #0f172a;
      }
      .grid-line {
        stroke: #1e293b;
        stroke-width: 1;
        opacity: 0.5;
        stroke-dasharray: 4 4;
      }
      .packet {
        fill: #00f2fe;
        filter: drop-shadow(0 0 3px #00f2fe);
      }
      .float-node {
        animation: floatNode 4s ease-in-out infinite alternate;
        filter: drop-shadow(0 0 10px rgba(251, 133, 0, 0.4));
      }
      @keyframes floatNode {
        0% { transform: translateY(0px); }
        100% { transform: translateY(-8px); }
      }
      .neon-beam {
        fill: none;
        stroke: #00f2fe;
        stroke-width: 1.5;
        stroke-dasharray: 5 15;
        animation: beamFlow 20s linear infinite;
        opacity: 0.6;
        filter: drop-shadow(0 0 4px #00f2fe);
      }
      @keyframes beamFlow {
        to { stroke-dashoffset: -100; }
      }
      .title-text {
        font-family: -apple-system, BlinkMacSystemFont, "Segoe UI", Roboto, Helvetica, Arial, sans-serif;
        font-size: 38px;
        font-weight: 800;
        fill: #ffffff;
        filter: drop-shadow(0 0 8px rgba(0, 242, 254, 0.6));
      }
      .title-accent {
        fill: #ffb703;
      }
      .cursor {
        fill: #00f2fe;
        animation: blink 1s step-end infinite;
      }
      @keyframes blink {
        50% { opacity: 0; }
      }
      .glow-border {
        fill: none;
        stroke: #00f2fe;
        stroke-width: 2;
        opacity: 0.3;
        rx: 12px;
      }
    </style>
  </defs>

  <!-- Background -->
  <rect width="100%" height="100%" rx="12" class="bg-rect" />
  
  <!-- Subtle Grid -->
  <line x1="0" y1="20" x2="800" y2="20" class="grid-line" style="animation-delay: 0.0s" />
<line x1="0" y1="35" x2="800" y2="35" class="grid-line" style="animation-delay: 0.2s" />
<line x1="0" y1="50" x2="800" y2="50" class="grid-line" style="animation-delay: 0.4s" />
<line x1="0" y1="65" x2="800" y2="65" class="grid-line" style="animation-delay: 0.6000000000000001s" />
<line x1="0" y1="80" x2="800" y2="80" class="grid-line" style="animation-delay: 0.8s" />
<line x1="0" y1="95" x2="800" y2="95" class="grid-line" style="animation-delay: 1.0s" />
<line x1="0" y1="110" x2="800" y2="110" class="grid-line" style="animation-delay: 1.2000000000000002s" />
<line x1="0" y1="125" x2="800" y2="125" class="grid-line" style="animation-delay: 1.4000000000000001s" />
<line x1="0" y1="140" x2="800" y2="140" class="grid-line" style="animation-delay: 1.6s" />
<line x1="0" y1="155" x2="800" y2="155" class="grid-line" style="animation-delay: 1.8s" />
<line x1="0" y1="170" x2="800" y2="170" class="grid-line" style="animation-delay: 2.0s" />
<line x1="0" y1="185" x2="800" y2="185" class="grid-line" style="animation-delay: 2.2s" />
<line x1="0" y1="200" x2="800" y2="200" class="grid-line" style="animation-delay: 2.4000000000000004s" />
<line x1="0" y1="215" x2="800" y2="215" class="grid-line" style="animation-delay: 2.6s" />
<line x1="0" y1="230" x2="800" y2="230" class="grid-line" style="animation-delay: 2.8000000000000003s" />
<line x1="20" y1="0" x2="20" y2="200" class="grid-line" style="animation-delay: 0.0s" />
<line x1="55" y1="0" x2="55" y2="200" class="grid-line" style="animation-delay: 0.15s" />
<line x1="90" y1="0" x2="90" y2="200" class="grid-line" style="animation-delay: 0.3s" />
<line x1="125" y1="0" x2="125" y2="200" class="grid-line" style="animation-delay: 0.44999999999999996s" />
<line x1="160" y1="0" x2="160" y2="200" class="grid-line" style="animation-delay: 0.6s" />
<line x1="195" y1="0" x2="195" y2="200" class="grid-line" style="animation-delay: 0.75s" />
<line x1="230" y1="0" x2="230" y2="200" class="grid-line" style="animation-delay: 0.8999999999999999s" />
<line x1="265" y1="0" x2="265" y2="200" class="grid-line" style="animation-delay: 1.05s" />
<line x1="300" y1="0" x2="300" y2="200" class="grid-line" style="animation-delay: 1.2s" />
<line x1="335" y1="0" x2="335" y2="200" class="grid-line" style="animation-delay: 1.3499999999999999s" />
<line x1="370" y1="0" x2="370" y2="200" class="grid-line" style="animation-delay: 1.5s" />
<line x1="405" y1="0" x2="405" y2="200" class="grid-line" style="animation-delay: 1.65s" />
<line x1="440" y1="0" x2="440" y2="200" class="grid-line" style="animation-delay: 1.7999999999999998s" />
<line x1="475" y1="0" x2="475" y2="200" class="grid-line" style="animation-delay: 1.95s" />
<line x1="510" y1="0" x2="510" y2="200" class="grid-line" style="animation-delay: 2.1s" />
<line x1="545" y1="0" x2="545" y2="200" class="grid-line" style="animation-delay: 2.25s" />
<line x1="580" y1="0" x2="580" y2="200" class="grid-line" style="animation-delay: 2.4s" />
<line x1="615" y1="0" x2="615" y2="200" class="grid-line" style="animation-delay: 2.55s" />
<line x1="650" y1="0" x2="650" y2="200" class="grid-line" style="animation-delay: 2.6999999999999997s" />
<line x1="685" y1="0" x2="685" y2="200" class="grid-line" style="animation-delay: 2.85s" />
<line x1="720" y1="0" x2="720" y2="200" class="grid-line" style="animation-delay: 3.0s" />
<line x1="755" y1="0" x2="755" y2="200" class="grid-line" style="animation-delay: 3.15s" />
<line x1="790" y1="0" x2="790" y2="200" class="grid-line" style="animation-delay: 3.3s" />
<line x1="825" y1="0" x2="825" y2="200" class="grid-line" style="animation-delay: 3.4499999999999997s" />
<line x1="860" y1="0" x2="860" y2="200" class="grid-line" style="animation-delay: 3.5999999999999996s" />

  
  <!-- Data Packets -->
  <circle cx="-10" cy="35" r="1.5" class="packet"><animate attributeName="cx" from="-10" to="810" dur="4.83271983990642s" begin="1.1405125947831158s" repeatCount="indefinite" /></circle>
<circle cx="-10" cy="80" r="1.5" class="packet"><animate attributeName="cx" from="-10" to="810" dur="3.908934551241848s" begin="2.1604151919876244s" repeatCount="indefinite" /></circle>
<circle cx="-10" cy="170" r="1.5" class="packet"><animate attributeName="cx" from="-10" to="810" dur="4.075888592288661s" begin="3.070495021330661s" repeatCount="indefinite" /></circle>
<circle cx="-10" cy="215" r="1.5" class="packet"><animate attributeName="cx" from="-10" to="810" dur="5.399350496567457s" begin="2.0068063160988197s" repeatCount="indefinite" /></circle>
<circle cx="-10" cy="215" r="1.5" class="packet"><animate attributeName="cx" from="-10" to="810" dur="4.346236015268159s" begin="3.5786859966964952s" repeatCount="indefinite" /></circle>
<circle cx="-10" cy="200" r="1.5" class="packet"><animate attributeName="cx" from="-10" to="810" dur="4.470029487715152s" begin="0.2813688458627337s" repeatCount="indefinite" /></circle>
<circle cx="-10" cy="170" r="1.5" class="packet"><animate attributeName="cx" from="-10" to="810" dur="5.414268581862238s" begin="3.3295314402156424s" repeatCount="indefinite" /></circle>
<circle cx="-10" cy="140" r="1.5" class="packet"><animate attributeName="cx" from="-10" to="810" dur="4.20710738828407s" begin="1.2495945273166336s" repeatCount="indefinite" /></circle>
<circle cx="-10" cy="50" r="1.5" class="packet"><animate attributeName="cx" from="-10" to="810" dur="5.435347567011279s" begin="1.7766049598976381s" repeatCount="indefinite" /></circle>
<circle cx="-10" cy="215" r="1.5" class="packet"><animate attributeName="cx" from="-10" to="810" dur="5.047106556169979s" begin="3.2877713070377452s" repeatCount="indefinite" /></circle>


  <!-- Isometric Cloud Core -->
  <g id="cloud-core">
    
    <path d="M 650 90 L 624 60" class="neon-beam" />
    <path d="M 650 90 L 676 120" class="neon-beam" />
    <path d="M 650 90 L 680 75" class="neon-beam" />
    <path d="M 650 90 L 632 100" class="neon-beam" />
    
    
        <g class="float-node" style="animation-delay: 0s">
            <path d="M 650 60 L 675.98 75.0 L 650 90 L 624.02 75.0 Z" fill="#ffb703" stroke="#0f172a" stroke-width="1" />
            <path d="M 624.02 75.0 L 650 90 L 650 120 L 624.02 105.0 Z" fill="#fb8500" stroke="#0f172a" stroke-width="1" />
            <path d="M 675.98 75.0 L 650 90 L 650 120 L 675.98 105.0 Z" fill="#e85d04" stroke="#0f172a" stroke-width="1" />
        </g>
        
        <g class="float-node" style="animation-delay: 0.5s">
            <path d="M 624.02 45.0 L 637.01 52.5 L 624.02 60.0 L 611.03 52.5 Z" fill="#8ecae6" stroke="#0f172a" stroke-width="1" />
            <path d="M 611.03 52.5 L 624.02 60.0 L 624.02 75.0 L 611.03 67.5 Z" fill="#219ebc" stroke="#0f172a" stroke-width="1" />
            <path d="M 637.01 52.5 L 624.02 60.0 L 624.02 75.0 L 637.01 67.5 Z" fill="#023047" stroke="#0f172a" stroke-width="1" />
        </g>
        
        <g class="float-node" style="animation-delay: 1.2s">
            <path d="M 675.98 75.0 L 688.97 82.5 L 675.98 90.0 L 662.99 82.5 Z" fill="#8ecae6" stroke="#0f172a" stroke-width="1" />
            <path d="M 662.99 82.5 L 675.98 90.0 L 675.98 105.0 L 662.99 97.5 Z" fill="#219ebc" stroke="#0f172a" stroke-width="1" />
            <path d="M 688.97 82.5 L 675.98 90.0 L 675.98 105.0 L 688.97 97.5 Z" fill="#023047" stroke="#0f172a" stroke-width="1" />
        </g>
        
        <g class="float-node" style="animation-delay: 0.8s">
            <path d="M 680.31 52.5 L 697.63 62.5 L 680.31 72.5 L 662.9899999999999 62.5 Z" fill="#00f2fe" stroke="#0f172a" stroke-width="1" />
            <path d="M 662.9899999999999 62.5 L 680.31 72.5 L 680.31 92.5 L 662.9899999999999 82.5 Z" fill="#00c6ff" stroke="#0f172a" stroke-width="1" />
            <path d="M 697.63 62.5 L 680.31 72.5 L 680.31 92.5 L 697.63 82.5 Z" fill="#00a8cc" stroke="#0f172a" stroke-width="1" />
        </g>
        
        <g class="float-node" style="animation-delay: 1.5s">
            <path d="M 632.68 80.0 L 648.2679999999999 89.0 L 632.68 98.0 L 617.092 89.0 Z" fill="#00f2fe" stroke="#0f172a" stroke-width="1" />
            <path d="M 617.092 89.0 L 632.68 98.0 L 632.68 116.0 L 617.092 107.0 Z" fill="#00c6ff" stroke="#0f172a" stroke-width="1" />
            <path d="M 648.2679999999999 89.0 L 632.68 98.0 L 632.68 116.0 L 648.2679999999999 107.0 Z" fill="#00a8cc" stroke="#0f172a" stroke-width="1" />
        </g>
        
  </g>

  <!-- Typography -->
  <text x="50" y="110" class="title-text">Hello, World! I'm <tspan class="title-accent">Kevin</tspan><tspan class="cursor">_</tspan></text>

  <!-- Border -->
  <rect x="2" y="2" width="796" height="196" class="glow-border" />
</svg>